<svg width="95" height="46" viewBox="0 0 95 46" fill="none" xmlns="http://www.w3.org/2000/svg">
<path d="M3.44922 6.53125H9.00391L13.0352 16.3984H13.2461L17.2773 6.53125H22.832V23.5H18.4727V13.5156H18.332L14.4648 23.3828H11.793L7.94922 13.4453H7.80859V23.5H3.44922V6.53125ZM41.4414 15.0156C41.4414 20.6641 37.8203 23.7344 33.2383 23.7344C28.6094 23.7344 25.0234 20.6289 25.0117 15.0156C25.0234 9.36719 28.6094 6.29688 33.2383 6.29688C37.8203 6.29688 41.4414 9.36719 41.4414 15.0156ZM29.6055 15.0156C29.6055 18.1328 30.8945 19.832 33.2383 19.8438C35.5586 19.832 36.8594 18.1328 36.8477 15.0156C36.8594 11.8867 35.5586 10.1875 33.2383 10.1875C30.8945 10.1875 29.6055 11.8867 29.6055 15.0156ZM54.8008 12.8359C54.6484 11.2422 53.582 10.1875 51.7773 10.1875C49.4219 10.1875 48.0977 11.9805 48.0977 15.0156C48.0977 18.2031 49.457 19.832 51.7539 19.8438C53.4766 19.832 54.5547 18.918 54.8008 17.4062L59.3242 17.4531C59.0781 20.3594 56.5469 23.7344 51.6602 23.7344C47.0078 23.7344 43.5156 20.6406 43.5039 15.0156C43.5156 9.36719 47.1016 6.29688 51.6602 6.29688C55.8906 6.29688 58.9492 8.66406 59.3242 12.8359H54.8008ZM71.582 6.53125H76.0352V17.4297C76.0469 21.2734 73.0938 23.6992 68.7461 23.7109C64.3867 23.6992 61.4688 21.2734 61.4805 17.4297V6.53125H65.9336V17.0312C65.9336 18.6719 67.1055 19.8438 68.7461 19.8438C70.4102 19.8438 71.5703 18.6719 71.582 17.0312V6.53125ZM78.332 23.5V6.53125H85.5508C89.3477 6.53125 91.832 8.6875 91.832 12.2734C91.832 14.6172 90.7539 16.2695 88.9258 17.1367L92.3945 23.5H87.543L84.5312 17.8516H82.7852V23.5H78.332ZM82.7852 14.3594H84.5195C86.1953 14.3594 87.1797 13.75 87.168 12.2734C87.1797 10.7734 86.1953 10.1055 84.5195 10.0938H82.7852V14.3594ZM12.9883 39.9473V41.1045H0.976562V39.9473H6.26465V36.915H2.35352V30.6748H11.5527V36.915H7.6416V39.9473H12.9883ZM3.70117 35.8164H10.1904V31.7881H3.70117V35.8164ZM24.458 34.4541V35.5527H15.5518V30.3672H24.2969V31.4951H16.958V34.4541H24.458ZM13.9258 38.2773V37.1494H25.9375V38.2773H20.5762V42.7158H19.2139V38.2773H13.9258ZM31.1816 30.5576C33.2544 30.5503 34.7485 31.832 34.7559 33.6777C34.7485 35.5234 33.2544 36.8052 31.1816 36.8125C29.1162 36.8052 27.6001 35.5234 27.6074 33.6777C27.6001 31.832 29.1162 30.5503 31.1816 30.5576ZM26.9775 38.79C29.3652 38.79 32.6758 38.7681 35.5469 38.3506L35.6494 39.3613C32.6831 39.9326 29.4971 39.9473 27.1533 39.9473L26.9775 38.79ZM28.9844 33.6777C28.9697 34.8423 29.9072 35.5967 31.1816 35.5967C32.4561 35.5967 33.3936 34.8423 33.3936 33.6777C33.3936 32.5278 32.4561 31.7588 31.1816 31.7588C29.9072 31.7588 28.9697 32.5278 28.9844 33.6777ZM36.3672 42.7744V29.6201H37.7588V42.7744H36.3672ZM49.8877 30.792C49.8804 34.8936 48.7744 38.3286 43.9697 40.8262L42.9443 39.4199C45.0537 38.314 46.3721 37.0762 47.1411 35.5967L43.2666 35.9482L43.0176 34.3662L47.7197 34.0879C47.8735 33.5239 47.9688 32.9233 48.02 32.2861H43.7354V30.792H49.8877ZM49.8584 36.168V34.6445H52.4219V29.5176H54.2822V42.8477H52.4219V36.168H49.8584ZM67.1875 29.5176V42.877H65.3271V29.5176H67.1875ZM56.7139 32.1396V30.6309H63.0566V35.7725H58.6621V38.2188C60.6982 38.2041 62.4194 38.1016 64.375 37.7793L64.5361 39.2881C62.3462 39.6763 60.3613 39.7568 57.9297 39.7568H56.7285V34.293H61.1523V32.1396H56.7139ZM79.7266 29.9131V31.085C79.7339 32.1104 79.7339 33.1943 79.4775 34.5273H81.1035V35.9922H78.1152V36.9297H79.7852V40.46H72.1973V41.2656H80.2539V42.7012H70.3369V39.127H77.9248V38.3506H70.3223V36.9297H71.9336V35.9922H69.0039V34.5273H77.5879C77.6685 34.1392 77.7197 33.7729 77.7637 33.4287L70.3076 33.751L70.1025 32.2861L77.8516 32.125C77.8589 31.8687 77.8589 31.627 77.8662 31.3779H70.4688V29.9131H79.7266ZM73.8086 36.9297H76.2549V35.9922H73.8086V36.9297ZM93.1738 37.9404V42.7012H84.165V37.9404H93.1738ZM82.4365 31.6416V30.1328H88.4863V34.2197H84.3115V35.4795C86.333 35.4648 87.7832 35.3989 89.4531 35.1279L89.585 36.6367C87.6807 36.9517 86.0034 36.9956 83.5498 36.9883H82.4658V32.8135H86.6553V31.6416H82.4365ZM86.0254 41.207H91.3281V39.376H86.0254V41.207ZM89.1602 33.7949V32.2861H91.3135V29.5322H93.1738V37.3545H91.3135V33.7949H89.1602Z" fill="black"/>
</svg>
