<svg width="150" height="150" viewBox="0 0 150 150" fill="none" xmlns="http://www.w3.org/2000/svg">
<rect width="150" height="150" fill="#E0E0E0"/>
<g clip-path="url(#clip0_40_588)">
<path d="M84.1815 118.142L67.1633 118.118C65.0322 118.496 63.1016 119.616 61.7102 121.281C60.3188 122.946 59.5555 125.051 59.5542 127.225V156.67H91.63V127.225C91.6289 125.078 90.8853 122.999 89.5266 121.342C88.1679 119.685 86.2784 118.554 84.1815 118.142V118.142Z" fill="#333333"/>
<path d="M75.5936 100.363H75.5906C70.8761 100.363 67.0542 104.203 67.0542 108.941V118.276C67.0542 123.014 70.8761 126.854 75.5906 126.854H75.5936C80.3081 126.854 84.13 123.014 84.13 118.276V108.941C84.13 104.203 80.3081 100.363 75.5936 100.363Z" fill="white"/>
<path d="M108.381 88.6288C126.489 70.433 126.489 40.9318 108.381 22.7361C90.2724 4.54032 60.9127 4.54033 42.8042 22.7361C24.6957 40.9319 24.6957 70.433 42.8042 88.6288C60.9127 106.825 90.2724 106.825 108.381 88.6288Z" fill="#333333"/>
<path d="M55.6182 110.226C61.0394 104.779 61.0394 95.9473 55.6182 90.5C50.197 85.0527 41.4075 85.0527 35.9863 90.5C30.5651 95.9473 30.5651 104.779 35.9863 110.226C41.4075 115.674 50.197 115.674 55.6182 110.226Z" fill="#333333"/>
<path d="M34.3967 111.331C34.3967 115.03 32.9342 118.578 30.3308 121.194C27.7275 123.81 24.1966 125.28 20.5149 125.28C9.38156 125.28 0.514893 111.331 0.514893 111.331C0.514893 111.331 8.62095 97.3853 20.5149 97.3853C24.1961 97.3853 27.7265 98.8544 30.3298 101.47C32.933 104.085 34.3959 107.632 34.3967 111.331V111.331Z" fill="#333333"/>
<path d="M117.144 105.619C120.037 98.485 116.627 90.345 109.527 87.438C102.427 84.531 94.3258 87.9577 91.4327 95.0918C88.5396 102.226 91.9499 110.366 99.0498 113.273C106.15 116.18 114.251 112.753 117.144 105.619Z" fill="#333333"/>
<path d="M115.697 111.331C115.697 115.03 117.159 118.578 119.763 121.194C122.366 123.81 125.897 125.28 129.579 125.28C140.712 125.28 149.579 111.331 149.579 111.331C149.579 111.331 141.473 97.3853 129.579 97.3853C125.897 97.3853 122.367 98.8544 119.764 101.47C117.16 104.085 115.698 107.632 115.697 111.331V111.331Z" fill="#333333"/>
<path d="M43.601 83.4969C45.3747 79.1077 43.2715 74.1048 38.9034 72.3225C34.5353 70.5403 29.5563 72.6536 27.7826 77.0428C26.0089 81.4319 28.1121 86.4349 32.4802 88.2171C36.8483 89.9994 41.8273 87.8861 43.601 83.4969Z" fill="white"/>
<path d="M122.554 82.2102C123.624 77.5966 120.77 72.9849 116.178 71.9095C111.587 70.8342 106.997 73.7026 105.927 78.3161C104.857 82.9297 107.711 87.5414 112.303 88.6168C116.894 89.6921 121.484 86.8237 122.554 82.2102Z" fill="white"/>
<path d="M33.7847 67.3625C34.0308 78.3401 38.5436 88.7849 46.3572 96.4613C54.1708 104.138 64.6645 108.436 75.5922 108.436C86.52 108.436 97.0137 104.138 104.827 96.4613C112.641 88.7849 117.154 78.3401 117.4 67.3625C91.3453 44.7084 63.4736 44.7084 33.7847 67.3625Z" fill="white"/>
<path d="M75.5906 25.3519C64.4998 25.3519 53.8632 29.779 46.0207 37.6592C38.1783 45.5394 33.7725 56.2273 33.7725 67.3716H91.63L95.1513 59.6345L98.4664 67.3625H117.403C117.4 56.2208 112.994 45.5362 105.153 37.6581C97.3126 29.78 86.6789 25.3535 75.5906 25.3519V25.3519Z" fill="#333333"/>
<path d="M117.809 67.7735H98.1816L95.1513 60.6484L91.9059 67.7735H33.3726V67.3625C33.3726 43.9715 52.312 24.9408 75.5907 24.9408C98.8695 24.9408 117.809 43.9715 117.809 67.3625V67.7735ZM98.7332 66.9514H116.988C116.766 44.2029 98.2817 25.766 75.5907 25.766C52.8998 25.766 34.415 44.2029 34.1968 66.9514H91.3665L95.1513 58.6205L98.7332 66.9514Z" fill="#333333"/>
<path d="M56.0361 90.5525C60.5197 90.5525 64.1543 88.963 64.1543 87.0021C64.1543 85.0413 60.5197 83.4518 56.0361 83.4518C51.5526 83.4518 47.918 85.0413 47.918 87.0021C47.918 88.963 51.5526 90.5525 56.0361 90.5525Z" fill="#F2F2F2"/>
<path d="M95.1485 90.5525C99.632 90.5525 103.267 88.963 103.267 87.0021C103.267 85.0413 99.632 83.4518 95.1485 83.4518C90.6649 83.4518 87.0303 85.0413 87.0303 87.0021C87.0303 88.963 90.6649 90.5525 95.1485 90.5525Z" fill="#F2F2F2"/>
<path d="M62.4425 78.9392C62.1162 78.9392 61.8033 78.809 61.5726 78.5771C61.3418 78.3453 61.2122 78.0309 61.2122 77.703C61.1803 76.4107 60.6471 75.1822 59.7262 74.2796C58.8054 73.377 57.5699 72.8717 56.2834 72.8717C54.997 72.8717 53.7615 73.377 52.8407 74.2796C51.9198 75.1822 51.3865 76.4107 51.3546 77.703C51.3546 78.0309 51.225 78.3453 50.9943 78.5771C50.7636 78.809 50.4506 78.9392 50.1243 78.9392C49.798 78.9392 49.4851 78.809 49.2544 78.5771C49.0237 78.3453 48.894 78.0309 48.894 77.703C48.9332 75.7598 49.7289 73.9094 51.1105 72.5491C52.492 71.1888 54.3492 70.4268 56.2834 70.4268C58.2177 70.4268 60.0749 71.1888 61.4564 72.5491C62.8379 73.9094 63.6337 75.7598 63.6728 77.703C63.6728 78.0309 63.5432 78.3453 63.3125 78.5771C63.0818 78.809 62.7688 78.9392 62.4425 78.9392V78.9392Z" fill="#333333"/>
<path d="M101.061 78.9392C100.734 78.9392 100.421 78.809 100.191 78.5771C99.96 78.3453 99.8304 78.0309 99.8304 77.703C99.7985 76.4107 99.2652 75.1822 98.3444 74.2796C97.4235 73.377 96.188 72.8717 94.9016 72.8717C93.6152 72.8717 92.3797 73.377 91.4588 74.2796C90.538 75.1822 90.0047 76.4107 89.9728 77.703C89.9728 78.0309 89.8432 78.3453 89.6125 78.5771C89.3817 78.809 89.0688 78.9392 88.7425 78.9392C88.4162 78.9392 88.1033 78.809 87.8726 78.5771C87.6418 78.3453 87.5122 78.0309 87.5122 77.703C87.5514 75.7598 88.3471 73.9094 89.7286 72.5491C91.1101 71.1888 92.9673 70.4268 94.9016 70.4268C96.8359 70.4268 98.6931 71.1888 100.075 72.5491C101.456 73.9094 102.252 75.7598 102.291 77.703C102.291 78.0309 102.161 78.3453 101.931 78.5771C101.7 78.809 101.387 78.9392 101.061 78.9392Z" fill="#333333"/>
<path d="M82.1213 87.3614C82.1213 90.3637 79.2001 92.7996 75.5941 92.7996C71.988 92.7996 69.0698 90.3637 69.0698 87.3614C69.0698 84.3591 82.1213 84.3591 82.1213 87.3614Z" fill="#333333"/>
<path d="M91.7483 138.093H84.6514V192.155H91.7483V138.093Z" fill="white"/>
<path d="M83.8818 126.686L84.0243 138.169L91.7485 138.093L91.6061 126.619C91.5706 125.608 91.1436 124.651 90.4162 123.952C89.6888 123.252 88.7183 122.865 87.7115 122.874C86.7047 122.883 85.741 123.286 85.0257 123.998C84.3104 124.71 83.9 125.675 83.8818 126.686V126.686Z" fill="#333333"/>
<path d="M59.4484 192.158H66.5454V138.096H59.4484L59.4484 192.158Z" fill="white"/>
<path d="M67.3148 126.686L67.1754 138.169L59.4512 138.093L59.5906 126.619C59.6261 125.608 60.053 124.651 60.7804 123.952C61.5078 123.252 62.4783 122.865 63.4851 122.874C64.492 122.883 65.4557 123.286 66.171 123.998C66.8863 124.71 67.2967 125.675 67.3148 126.686V126.686Z" fill="#333333"/>
</g>
<defs>
<clipPath id="clip0_40_588">
<rect width="150" height="150" fill="white"/>
</clipPath>
</defs>
</svg>
