<svg width="150" height="150" viewBox="0 0 150 150" fill="none" xmlns="http://www.w3.org/2000/svg">
<rect width="150" height="150" fill="#E0E0E0"/>
<g clip-path="url(#clip0_42_668)">
<path d="M104.335 84.9548C117.473 71.8164 114.997 48.0382 98.8035 31.8449C82.6102 15.6517 58.8321 13.1752 45.6936 26.3137C32.5551 39.4522 35.0316 63.2303 51.2249 79.4236C67.4182 95.6169 91.1963 98.0933 104.335 84.9548Z" fill="#333333"/>
<path d="M123.27 19.8589L117.869 14.4572C113.329 9.94313 107.187 7.4093 100.785 7.4093C94.3831 7.4093 88.2414 9.94313 83.7017 14.4572L61.3003 36.8433L104.468 72.8281L123.27 54.0258C127.784 49.4861 130.318 43.3443 130.318 36.9423C130.318 30.5403 127.784 24.3985 123.27 19.8589V19.8589Z" fill="#333333"/>
<path d="M101.743 96.0012C116.663 81.0815 116.663 56.8917 101.743 41.972C86.8233 27.0522 62.6336 27.0522 47.7138 41.972C32.7941 56.8917 32.7941 81.0815 47.7138 96.0012C62.6336 110.921 86.8233 110.921 101.743 96.0012Z" fill="#333333"/>
<path d="M45.8709 94.9371C49.4489 91.3591 49.4489 85.558 45.8709 81.9799C42.2928 78.4019 36.4917 78.4019 32.9137 81.9799C29.3356 85.558 29.3356 91.3591 32.9137 94.9371C36.4917 98.5152 42.2928 98.5152 45.8709 94.9371Z" fill="white"/>
<path d="M116.082 94.9357C119.66 91.3577 119.66 85.5565 116.082 81.9785C112.504 78.4005 106.703 78.4005 103.125 81.9785C99.5466 85.5565 99.5466 91.3577 103.125 94.9357C106.703 98.5138 112.504 98.5137 116.082 94.9357Z" fill="white"/>
<path d="M75.7697 47.9938H73.2211C54.6927 47.9938 39.6724 63.0141 39.6724 81.5426V91.2375C39.6724 109.766 54.6927 124.786 73.2211 124.786H75.7697C94.2982 124.786 109.319 109.766 109.319 91.2375V81.5426C109.319 63.0141 94.2982 47.9938 75.7697 47.9938Z" fill="white"/>
<path d="M74.4968 59.6893C84.8121 59.6893 93.1743 56.3302 93.1743 52.1866C93.1743 48.043 84.8121 44.684 74.4968 44.684C64.1815 44.684 55.8193 48.043 55.8193 52.1866C55.8193 56.3302 64.1815 59.6893 74.4968 59.6893Z" fill="#333333"/>
<path d="M61.5074 86.7616C61.8474 84.6668 60.4249 82.693 58.3301 82.3529C56.2352 82.0129 54.2614 83.4354 53.9214 85.5302C53.5813 87.6251 55.0039 89.5989 57.0987 89.939C59.1935 90.279 61.1674 88.8565 61.5074 86.7616Z" fill="#333333"/>
<path d="M94.3586 87.0453C94.8569 84.9824 93.5885 82.9061 91.5256 82.4078C89.4627 81.9095 87.3864 83.1779 86.8881 85.2408C86.3898 87.3037 87.6582 89.38 89.7211 89.8783C91.784 90.3766 93.8603 89.1082 94.3586 87.0453Z" fill="#333333"/>
<path d="M53.2163 93.6857C53.2163 93.6857 62.5977 103.907 74.1683 103.907C85.739 103.907 95.1234 93.6857 95.1234 93.6857H53.2163Z" fill="#F2F2F2"/>
<path d="M84.6061 133.135H64.3849C62.5915 133.135 60.8157 133.489 59.1588 134.175C57.502 134.861 55.9965 135.867 54.7284 137.135C53.4603 138.403 52.4543 139.909 51.768 141.566C51.0817 143.223 50.7285 144.999 50.7285 146.792V155.461H58.7123V177.783H98.2656V146.792C98.2656 144.998 97.9123 143.222 97.2258 141.565C96.5393 139.908 95.5331 138.402 94.2647 137.134C92.9962 135.866 91.4904 134.86 89.8332 134.174C88.1759 133.488 86.3998 133.135 84.6061 133.135Z" fill="#333333"/>
<path d="M66.0933 111.961H82.8981V134.442C82.8981 136.67 82.013 138.807 80.4375 140.382C78.8621 141.958 76.7253 142.843 74.4972 142.843V142.843C72.2691 142.843 70.1323 141.958 68.5569 140.382C66.9814 138.807 66.0963 136.67 66.0963 134.442V111.961H66.0933Z" fill="white"/>
</g>
<defs>
<clipPath id="clip0_42_668">
<rect width="150" height="150" rx="27.4042" fill="white"/>
</clipPath>
</defs>
</svg>
