<svg width="150" height="150" viewBox="0 0 150 150" fill="none" xmlns="http://www.w3.org/2000/svg">
<rect width="150" height="150" fill="#E0E0E0"/>
<g clip-path="url(#clip0_42_732)">
<path d="M104.33 88.8198C118.23 74.9195 115.609 49.7617 98.4759 32.6284C81.3425 15.495 56.1847 12.8741 42.2844 26.7744C28.3841 40.6747 31.0051 65.8324 48.1384 82.9658C65.2718 100.099 90.4296 102.72 104.33 88.8198Z" fill="#333333"/>
<path d="M123.667 17.3849L117.691 11.4091C112.668 6.41616 105.874 3.61365 98.7913 3.61365C91.7089 3.61365 84.9143 6.41616 79.8913 11.4091L55.1064 36.1909L102.864 75.9879L123.667 55.1879C134.064 44.7909 134.064 27.7788 123.667 17.3849Z" fill="#333333"/>
<path d="M113.497 70.2818V67.4212C113.497 47.5273 97.2217 31.2515 77.3277 31.2515H73.2156C53.3247 31.2515 37.0459 47.5273 37.0459 67.4212V70.2818H113.497Z" fill="#333333"/>
<path d="M44.9702 72.3576C44.9702 73.6461 44.5881 74.9058 43.8722 75.9772C43.1563 77.0486 42.1388 77.8836 40.9483 78.3768C39.7578 78.8699 38.4479 78.9989 37.184 78.7475C35.9202 78.4961 34.7593 77.8756 33.8482 76.9645C32.937 76.0533 32.3165 74.8924 32.0651 73.6286C31.8137 72.3648 31.9428 71.0548 32.4359 69.8643C32.929 68.6738 33.7641 67.6563 34.8355 66.9404C35.9069 66.2245 37.1665 65.8424 38.4551 65.8424C40.183 65.8424 41.8402 66.5288 43.062 67.7507C44.2838 68.9725 44.9702 70.6296 44.9702 72.3576V72.3576Z" fill="white"/>
<path d="M118.606 72.3575C118.607 73.647 118.225 74.9076 117.509 75.98C116.793 77.0524 115.775 77.8883 114.584 78.382C113.393 78.8757 112.082 79.0051 110.817 78.7537C109.552 78.5022 108.391 77.8814 107.479 76.9696C106.567 76.0579 105.946 74.8961 105.695 73.6315C105.444 72.3668 105.573 71.0559 106.067 69.8648C106.56 68.6736 107.396 67.6557 108.469 66.9397C109.541 66.2237 110.802 65.8418 112.091 65.8424C113.819 65.8432 115.475 66.5299 116.697 67.7515C117.919 68.9732 118.605 70.6299 118.606 72.3575Z" fill="white"/>
<path d="M111.442 69.9879C111.442 50.0119 95.2487 33.8182 75.2727 33.8182C55.2968 33.8182 39.103 50.0119 39.103 69.9879V88.0546C39.103 108.031 55.2968 124.224 75.2727 124.224C95.2487 124.224 111.442 108.031 111.442 88.0546V69.9879Z" fill="white"/>
<path d="M75.637 139.3C74.6277 139.3 73.6282 139.102 72.6957 138.716C71.7631 138.33 70.9158 137.764 70.2021 137.05C69.4884 136.336 68.9224 135.489 68.5363 134.557C68.1503 133.624 67.9518 132.624 67.9521 131.615V116.721H83.334V131.615C83.3344 132.626 83.1355 133.626 82.7486 134.559C82.3618 135.493 81.7947 136.341 81.0797 137.054C80.3648 137.768 79.516 138.334 78.582 138.719C77.6481 139.105 76.6473 139.302 75.637 139.3V139.3Z" fill="white"/>
<path d="M47.4639 178.161C46.485 178.161 45.5462 177.772 44.854 177.08C44.1618 176.387 43.7729 175.449 43.7729 174.47V157.973C43.7802 151.591 46.3184 145.473 50.8308 140.961C55.3432 136.448 61.4612 133.91 67.8426 133.903C68.8215 133.903 69.7603 134.292 70.4525 134.984C71.1447 135.676 71.5336 136.615 71.5336 137.594C71.5336 138.573 71.1447 139.512 70.4525 140.204C69.7603 140.896 68.8215 141.285 67.8426 141.285C63.4182 141.29 59.1764 143.049 56.0478 146.178C52.9193 149.306 51.1596 153.548 51.1548 157.973V174.47C51.1548 175.449 50.7659 176.387 50.0737 177.08C49.3815 177.772 48.4428 178.161 47.4639 178.161V178.161Z" fill="white"/>
<path d="M51.1548 157.973H43.7729C43.7802 151.591 46.3184 145.473 50.8308 140.961C55.3432 136.448 61.4612 133.91 67.8426 133.903V141.285C63.4182 141.29 59.1764 143.049 56.0478 146.178C52.9193 149.306 51.1596 153.548 51.1548 157.973V157.973Z" fill="#333333"/>
<path d="M104.116 178.161C103.137 178.161 102.198 177.772 101.506 177.08C100.814 176.387 100.425 175.449 100.425 174.47V157.973C100.419 153.549 98.6591 149.307 95.5307 146.179C92.4024 143.05 88.161 141.29 83.7368 141.285C82.7579 141.285 81.8191 140.896 81.1269 140.204C80.4348 139.512 80.0459 138.573 80.0459 137.594C80.0459 136.615 80.4348 135.676 81.1269 134.984C81.8191 134.292 82.7579 133.903 83.7368 133.903C90.1183 133.91 96.2363 136.448 100.749 140.961C105.261 145.473 107.799 151.591 107.807 157.973V174.47C107.807 175.449 107.418 176.387 106.725 177.08C106.033 177.772 105.094 178.161 104.116 178.161V178.161Z" fill="white"/>
<path d="M107.806 157.973H100.424C100.419 153.549 98.6586 149.307 95.5302 146.179C92.4019 143.05 88.1605 141.29 83.7363 141.285V133.903C90.1178 133.91 96.2358 136.448 100.748 140.961C105.261 145.473 107.799 151.591 107.806 157.973V157.973Z" fill="#333333"/>
<path d="M85.8852 132.961V160.588H65.3125V132.961C65.3141 131.818 65.7692 130.723 66.5778 129.916C67.3864 129.11 68.4823 128.657 69.6246 128.658H81.5731C82.7154 128.657 83.8113 129.11 84.6199 129.916C85.4285 130.723 85.8836 131.818 85.8852 132.961Z" fill="#333333"/>
<path d="M55.2124 77.0485C55.2124 87.3727 64.8094 95.7394 76.6457 95.7394C88.4821 95.7394 98.0791 87.3727 98.0791 77.0485H55.2124Z" fill="white"/>
<path d="M69.2488 70.1122C68.5254 70.1122 67.8317 69.8248 67.3203 69.3134C66.8088 68.8019 66.5215 68.1082 66.5215 67.3849V65.1758C66.5215 64.4525 66.8088 63.7588 67.3203 63.2473C67.8317 62.7359 68.5254 62.4485 69.2488 62.4485C69.9721 62.4485 70.6658 62.7359 71.1772 63.2473C71.6887 63.7588 71.976 64.4525 71.976 65.1758V67.3849C71.976 68.1082 71.6887 68.8019 71.1772 69.3134C70.6658 69.8248 69.9721 70.1122 69.2488 70.1122Z" fill="#333333"/>
<path d="M84.049 70.1122C83.3257 70.1122 82.632 69.8248 82.1206 69.3134C81.6091 68.8019 81.3218 68.1082 81.3218 67.3849V65.1758C81.3218 64.4525 81.6091 63.7588 82.1206 63.2473C82.632 62.7359 83.3257 62.4485 84.049 62.4485C84.7724 62.4485 85.4661 62.7359 85.9775 63.2473C86.489 63.7588 86.7763 64.4525 86.7763 65.1758V67.3849C86.7763 68.1082 86.489 68.8019 85.9775 69.3134C85.4661 69.8248 84.7724 70.1122 84.049 70.1122Z" fill="#333333"/>
</g>
<defs>
<clipPath id="clip0_42_732">
<rect width="150" height="150" fill="white"/>
</clipPath>
</defs>
</svg>
