<svg width="150" height="150" viewBox="0 0 150 150" fill="none" xmlns="http://www.w3.org/2000/svg">
<rect width="150" height="150" fill="#E0E0E0"/>
<g clip-path="url(#clip0_43_806)">
<path d="M109.065 141.895C127.788 123.172 127.788 92.8171 109.065 74.0945C90.3427 55.372 59.9874 55.372 41.2649 74.0945C22.5424 92.8171 22.5424 123.172 41.2649 141.895C59.9874 160.617 90.3427 160.617 109.065 141.895Z" fill="#333333"/>
<path d="M74.7617 115.576C50.6765 115.576 31.0825 95.9815 31.0825 71.8963V51.7269C31.0825 27.6416 50.6765 8.04767 74.7617 8.04767C98.8469 8.04767 118.447 27.6416 118.447 51.7269V71.8963C118.447 95.9815 98.8469 115.576 74.7617 115.576Z" fill="#333333"/>
<path d="M83.7167 121.674C83.5716 123.845 82.6062 125.88 81.0162 127.365C79.4262 128.85 77.3308 129.675 75.1552 129.672C72.9795 129.668 70.8864 128.838 69.3007 127.348C67.715 125.858 66.7553 123.821 66.6165 121.65C64.4751 122.028 62.5352 123.148 61.1371 124.813C59.739 126.478 58.972 128.583 58.9707 130.757V151.767H91.201V130.757C91.1999 128.611 90.4528 126.531 89.0876 124.874C87.7223 123.217 85.8237 122.086 83.7167 121.674V121.674Z" fill="#333333"/>
<path d="M108.094 190.255V180.258C108.094 162.294 93.3934 147.593 75.4285 147.593C57.4635 147.593 42.7627 162.294 42.7627 180.258V190.261L108.094 190.255Z" fill="#333333"/>
<path d="M64.7562 177.795L56.9947 177.813L56.5806 128.982C56.579 128.473 56.6778 127.968 56.8715 127.496C57.0652 127.025 57.3498 126.596 57.7092 126.235C58.0686 125.873 58.4957 125.586 58.9661 125.39C59.4365 125.194 59.941 125.092 60.4507 125.091V125.091C60.9603 125.089 61.4653 125.188 61.9368 125.382C62.4083 125.575 62.8369 125.86 63.1983 126.22C63.5597 126.579 63.8467 127.006 64.043 127.476C64.2392 127.947 64.3409 128.451 64.3421 128.961L64.7562 177.795Z" fill="white"/>
<path d="M85.5371 177.795L93.2986 177.813L93.7127 128.982C93.7139 128.472 93.6147 127.967 93.4207 127.496C93.2267 127.024 92.9417 126.596 92.5821 126.234C92.2224 125.873 91.7951 125.586 91.3245 125.39C90.854 125.194 90.3494 125.092 89.8396 125.091C89.3301 125.09 88.8255 125.189 88.3544 125.383C87.8832 125.576 87.4549 125.861 87.0939 126.221C86.7328 126.58 86.4461 127.007 86.25 127.477C86.0539 127.947 85.9524 128.452 85.9512 128.961L85.5371 177.795Z" fill="white"/>
<path d="M70.0011 121.453C70.4484 119.568 69.283 117.678 67.398 117.23C65.5131 116.783 63.6225 117.949 63.1752 119.833C62.7279 121.718 63.8933 123.609 65.7782 124.056C67.6631 124.504 69.5537 123.338 70.0011 121.453Z" fill="#F2F2F2"/>
<path d="M71.9594 128.063C72.4024 126.177 71.2327 124.289 69.3468 123.846C67.4609 123.403 65.5729 124.573 65.1298 126.459C64.6868 128.345 65.8565 130.233 67.7424 130.676C69.6283 131.119 71.5163 129.949 71.9594 128.063Z" fill="#F2F2F2"/>
<path d="M77.464 132.28C78.9274 131.01 79.0847 128.795 77.8152 127.332C76.5458 125.868 74.3304 125.711 72.867 126.98C71.4036 128.25 71.2464 130.465 72.5158 131.929C73.7852 133.392 76.0006 133.549 77.464 132.28Z" fill="#F2F2F2"/>
<path d="M84.3736 129.73C85.7435 128.36 85.7435 126.139 84.3736 124.77C83.0038 123.4 80.7828 123.4 79.413 124.77C78.0431 126.139 78.0431 128.36 79.413 129.73C80.7828 131.1 83.0038 131.1 84.3736 129.73Z" fill="#F2F2F2"/>
<path d="M84.8229 124.121C86.7457 123.885 88.1131 122.134 87.877 120.212C87.6409 118.289 85.8907 116.921 83.9679 117.157C82.0451 117.394 80.6777 119.144 80.9138 121.067C81.1499 122.989 82.9001 124.357 84.8229 124.121Z" fill="#F2F2F2"/>
<path d="M75.1664 129.673C72.8912 129.673 70.7095 128.768 69.101 127.159C67.4925 125.55 66.5889 123.368 66.5889 121.093V112.479C66.5889 110.204 67.4926 108.022 69.1012 106.414C70.7098 104.805 72.8915 103.901 75.1664 103.901V103.901C77.4394 103.905 79.6183 104.81 81.2248 106.418C82.8312 108.026 83.7339 110.206 83.7347 112.479V121.093C83.7347 123.367 82.8324 125.547 81.2259 127.156C79.6193 128.765 77.44 129.67 75.1664 129.673V129.673Z" fill="white"/>
<path d="M74.7645 11.3423H74.7614C52.4593 11.3423 34.3799 29.4217 34.3799 51.7238V71.8963C34.3799 94.1984 52.4593 112.278 74.7614 112.278H74.7645C97.0666 112.278 115.146 94.1984 115.146 71.8963V51.7238C115.146 29.4217 97.0666 11.3423 74.7645 11.3423Z" fill="white"/>
<path d="M118.446 60.6819V52.5429C118.446 27.3707 97.546 6.76577 72.4073 8.10857C49.4152 9.32653 31.0879 28.4333 31.0879 51.7269V61.2391C31.0879 61.2787 39.7902 68.6657 56.4702 65.7821C73.1502 62.8986 78.1317 49.8482 88.9259 48.0912C95.6247 47.0042 89.3613 64.8382 94.1357 67.9379C99.8023 71.5918 116.059 60.7246 118.254 60.7032C118.331 60.7824 118.446 60.7976 118.446 60.6819Z" fill="#333333"/>
<path d="M33.6547 85.6075C37.6721 85.6075 40.9289 82.3507 40.9289 78.3332C40.9289 74.3158 37.6721 71.059 33.6547 71.059C29.6372 71.059 26.3804 74.3158 26.3804 78.3332C26.3804 82.3507 29.6372 85.6075 33.6547 85.6075Z" fill="white"/>
<path d="M115.868 85.6075C119.885 85.6075 123.142 82.3507 123.142 78.3332C123.142 74.3158 119.885 71.059 115.868 71.059C111.85 71.059 108.593 74.3158 108.593 78.3332C108.593 82.3507 111.85 85.6075 115.868 85.6075Z" fill="white"/>
<path d="M49.3701 86.3231C49.3701 86.8255 48.6241 87.2366 47.7045 87.2366C46.7849 87.2366 46.042 86.8255 46.042 86.3231C46.042 85.8207 46.7849 85.4096 47.7045 85.4096C48.6241 85.4096 49.3701 85.8177 49.3701 86.3231Z" fill="#F2F2F2"/>
<path d="M54.5795 86.3231C54.5795 86.8255 53.8366 87.2366 52.917 87.2366C51.9975 87.2366 51.2515 86.8255 51.2515 86.3231C51.2515 85.8207 51.9975 85.4096 52.917 85.4096C53.8366 85.4096 54.5795 85.8177 54.5795 86.3231Z" fill="#F2F2F2"/>
<path d="M52.1715 88.7255C52.1715 89.231 51.4255 89.639 50.5059 89.639C49.5863 89.639 48.8403 89.231 48.8403 88.7255C48.8403 88.2201 49.5863 87.8121 50.5059 87.8121C51.4255 87.8121 52.1715 88.2201 52.1715 88.7255Z" fill="#F2F2F2"/>
<path d="M57.4331 88.7255C57.4331 89.231 56.6901 89.639 55.7705 89.639C54.851 89.639 54.105 89.231 54.105 88.7255C54.105 88.2201 54.851 87.8121 55.7705 87.8121C56.6901 87.8121 57.4331 88.2201 57.4331 88.7255Z" fill="#F2F2F2"/>
<path d="M59.7924 86.3231C59.7924 86.8255 59.0464 87.2366 58.1269 87.2366C57.2073 87.2366 56.4644 86.8255 56.4644 86.3231C56.4644 85.8207 57.2073 85.4096 58.1269 85.4096C59.0464 85.4096 59.7924 85.8177 59.7924 86.3231Z" fill="#F2F2F2"/>
<path d="M92.2602 86.3231C92.2602 86.8255 91.5173 87.2366 90.5977 87.2366C89.6781 87.2366 88.9321 86.8255 88.9321 86.3231C88.9321 85.8207 89.6781 85.4096 90.5977 85.4096C91.5173 85.4096 92.2602 85.8177 92.2602 86.3231Z" fill="#F2F2F2"/>
<path d="M97.461 86.3231C97.461 86.8255 96.715 87.2366 95.7954 87.2366C94.8759 87.2366 94.1299 86.8255 94.1299 86.3231C94.1299 85.8207 94.8759 85.4096 95.7954 85.4096C96.715 85.4096 97.461 85.8177 97.461 86.3231Z" fill="#F2F2F2"/>
<path d="M95.0498 88.7255C95.0498 89.231 94.3038 89.639 93.3842 89.639C92.4646 89.639 91.7217 89.231 91.7217 88.7255C91.7217 88.2201 92.4646 87.8121 93.3842 87.8121C94.3038 87.8121 95.0498 88.2201 95.0498 88.7255Z" fill="#F2F2F2"/>
<path d="M100.314 88.7255C100.314 89.231 99.568 89.639 98.6485 89.639C97.7289 89.639 96.9829 89.231 96.9829 88.7255C96.9829 88.2201 97.7289 87.8121 98.6485 87.8121C99.568 87.8121 100.314 88.2201 100.314 88.7255Z" fill="#F2F2F2"/>
<path d="M102.671 86.3231C102.671 86.8255 101.925 87.2366 101.008 87.2366C100.092 87.2366 99.3428 86.8255 99.3428 86.3231C99.3428 85.8207 100.089 85.4096 101.008 85.4096C101.928 85.4096 102.671 85.8177 102.671 86.3231Z" fill="#F2F2F2"/>
<path d="M59.1619 80.5012C58.4908 81.1723 57.6357 81.6292 56.7049 81.8143C55.774 81.9994 54.8092 81.9043 53.9324 81.5411C53.0556 81.1778 52.3062 80.5628 51.7789 79.7736C51.2516 78.9845 50.9702 78.0567 50.9702 77.1077C50.9702 76.1586 51.2516 75.2308 51.7789 74.4417C52.3062 73.6526 53.0556 73.0375 53.9324 72.6743C54.8092 72.311 55.774 72.216 56.7049 72.401C57.6357 72.5861 58.4908 73.0431 59.1619 73.7141C60.0613 74.6145 60.5665 75.8351 60.5665 77.1077C60.5665 78.3803 60.0613 79.6009 59.1619 80.5012V80.5012Z" fill="#333333"/>
<path d="M97.1473 80.5012C96.4761 81.1723 95.6211 81.6292 94.6902 81.8143C93.7594 81.9994 92.7945 81.9043 91.9177 81.5411C91.0409 81.1778 90.2915 80.5628 89.7642 79.7736C89.237 78.9845 88.9556 78.0567 88.9556 77.1077C88.9556 76.1586 89.237 75.2308 89.7642 74.4417C90.2915 73.6526 91.0409 73.0375 91.9177 72.6743C92.7945 72.311 93.7594 72.216 94.6902 72.401C95.6211 72.5861 96.4761 73.0431 97.1473 73.7141C98.0467 74.6145 98.5518 75.8351 98.5518 77.1077C98.5518 78.3803 98.0467 79.6009 97.1473 80.5012Z" fill="#333333"/>
<path d="M66.1504 84.9925C66.8261 86.687 67.9945 88.14 69.5046 89.1636C71.0146 90.1872 72.797 90.7343 74.6213 90.7343C76.4456 90.7343 78.228 90.1872 79.7381 89.1636C81.2482 88.14 82.4166 86.687 83.0923 84.9925H66.1504Z" fill="#333333"/>
</g>
<defs>
<clipPath id="clip0_43_806">
<rect width="150" height="150" fill="white"/>
</clipPath>
</defs>
</svg>
